<?xml version="1.0" encoding="UTF-8"?>
<svg id="_레이어_2" data-name="레이어 2" xmlns="http://www.w3.org/2000/svg" xmlns:xlink="http://www.w3.org/1999/xlink" viewBox="0 0 240 64">
  <defs>
    <style>
      .cls-1 {
        fill: url(#gd_1);
      }
    </style>
    <linearGradient id="gd_1" x1="27.58" y1="44.57" x2="27.58" y2="12.69" gradientUnits="userSpaceOnUse">
      <stop offset="0" stop-color="#d9d9d9"/>
      <stop offset=".07" stop-color="#bcbcbc"/>
      <stop offset=".17" stop-color="#9d9d9d"/>
      <stop offset=".28" stop-color="#838383"/>
      <stop offset=".4" stop-color="#6f6f6f"/>
      <stop offset=".54" stop-color="#616161"/>
      <stop offset=".71" stop-color="#595959"/>
      <stop offset="1" stop-color="#575757"/>
    </linearGradient>
  </defs>
  <g>
    <path d="M56,50.9c-6.2-2.86-14.66-4.61-24-4.61s-17.81,1.76-24,4.61v.41c7.04-1.42,15.24-2.23,24-2.23s16.96.81,24,2.23v-.41Z"/>
    <g>
      <path d="M41.24,44.87v-13.55l3.01,1.69v-7.95l-5.54-3.47v10.28l-3.98,2.34v10.17c2.23.07,4.41.24,6.51.5Z"/>
      <path d="M49.08,46.35v-9.35l-2.55-1.52v10.27c.87.19,1.72.38,2.55.6Z"/>
      <path d="M22.43,45.04v-23.22l-6.51,3.98v20.55c2.05-.54,4.23-.98,6.51-1.31Z"/>
    </g>
    <path class="cls-1" d="M26.68,44.57c1.89-.15,3.83-.24,5.81-.24.08,0,.16,0,.24,0V12.69h-4.84l-5.47,3.97v5.16l4.26-2.58v25.32Z"/>
  </g>
  <path d="M70.56,26.19v3.75h7.58v5.69h-7.58v8.27h-6.56v-23.59h15.01v5.88h-8.46ZM82.47,20.31h6.58v23.59h-6.58v-23.59ZM102.47,36.69h-2.36v7.22h-6.5v-23.59h10.22c5.09,0,8.77,3.42,8.77,8.35,0,2.9-1.41,5.27-3.74,6.66l4.68,8.58h-7.25l-3.83-7.22ZM100.12,31.21h2.97c1.82,0,2.86-1.09,2.86-2.57s-1.05-2.55-2.86-2.55h-2.97v5.12ZM115.18,36.29h6.7c0,1.69,1.3,2.51,2.78,2.51,1.36,0,2.66-.72,2.66-2.01,0-1.48-1.84-1.91-4.08-2.45-3.41-.85-7.76-1.89-7.76-7.26,0-4.65,3.41-7.31,8.98-7.31s8.9,2.9,8.9,7.7h-6.52c0-1.49-1.11-2.19-2.46-2.19-1.16,0-2.27.5-2.27,1.6,0,1.34,1.78,1.78,4,2.34,3.47.9,8.01,2.06,8.01,7.44s-3.96,7.83-9.44,7.83c-5.77,0-9.51-3.05-9.51-8.19ZM154.75,26.17h-6.41v17.74h-6.53v-17.74h-6.41v-5.85h19.34v5.85ZM159.45,32.13c0-7.1,5.36-12.41,12.54-12.41,6.18,0,10.97,4.08,11.93,10.06h-6.58c-.81-2.42-2.85-3.99-5.33-3.99-3.34,0-5.79,2.69-5.79,6.34s2.45,6.29,5.79,6.29c2.62,0,4.67-1.71,5.34-4.33h6.65c-.9,6.2-5.71,10.41-12,10.41-7.18,0-12.54-5.32-12.54-12.37ZM201.19,43.9c-.39-.43-.77-.84-1.14-1.25-1.85,1.13-4.05,1.76-6.47,1.76-4.53,0-7.68-2.83-7.68-6.97,0-3.19,1.9-5.16,4.09-6.63-1.84-2.63-2.23-4.01-2.23-5.38,0-3.84,3.17-5.94,7.15-5.94s7.1,2.15,7.1,5.93c0,3.22-2.43,5.06-4.95,6.58.82.99,1.76,2.1,2.84,3.34.39-.84.65-1.77.73-2.75h5.11c-.11,2.61-.92,4.95-2.26,6.85,1.2,1.36,2.5,2.84,3.9,4.45h-6.18ZM196.6,38.85c-1.42-1.6-2.62-2.98-3.63-4.19-.86.75-1.42,1.59-1.42,2.61,0,1.31.99,2.19,2.51,2.19.89,0,1.75-.22,2.54-.61ZM193.15,25.61c0,.68.38,1.57,1.14,2.74,1.39-.83,2.39-1.65,2.39-2.74s-.77-1.71-1.76-1.71-1.77.63-1.77,1.71ZM231.16,32.09c0,6.88-5.05,11.81-12.18,11.81h-9.55v-23.59h9.55c7.14,0,12.18,4.88,12.18,11.78ZM224.5,32.09c0-3.5-2.33-5.82-5.82-5.82h-2.71v11.69h2.71c3.49,0,5.82-2.38,5.82-5.86Z"/>
</svg>