<?xml version="1.0" encoding="utf-8"?>
<!-- Generator: Adobe Illustrator 28.1.0, SVG Export Plug-In . SVG Version: 6.00 Build 0)  -->
<svg version="1.1" id="_레이어_1" xmlns="http://www.w3.org/2000/svg" xmlns:xlink="http://www.w3.org/1999/xlink" x="0px"
	 y="0px" viewBox="0 0 64 64" style="enable-background:new 0 0 64 64;" xml:space="preserve">
<style type="text/css">
	.st0{fill:url(#SVGID_1_);}
</style>
<g>
	<g>
		<path d="M64,57.2C55.7,53.4,44.4,51,32,51S8.3,53.4,0,57.2v0.5c9.4-1.9,20.3-3,32-3s22.6,1.1,32,3V57.2z"/>
		<path d="M44.3,49.2V31.1l4,2.3V22.7l-7.4-4.6v13.7l-5.3,3.1v13.6C38.6,48.6,41.5,48.8,44.3,49.2z"/>
		<path d="M54.8,51.1V38.7l-3.4-2v13.7C52.5,50.6,53.7,50.8,54.8,51.1z"/>
		<path d="M19.2,49.4v-31l-8.7,5.3v27.4C13.3,50.4,16.2,49.8,19.2,49.4z"/>
	</g>
	
		<linearGradient id="SVGID_1_" gradientUnits="userSpaceOnUse" x1="26" y1="2693.6958" x2="26" y2="2651.1497" gradientTransform="matrix(1 0 0 1 0 -2644.8958)">
		<stop  offset="0" style="stop-color:#595959;stop-opacity:0.2"/>
		<stop  offset="6.999999e-02" style="stop-color:#595959;stop-opacity:0.35"/>
		<stop  offset="0.17" style="stop-color:#595959;stop-opacity:0.5"/>
		<stop  offset="0.29" style="stop-color:#595959;stop-opacity:0.65"/>
		<stop  offset="0.41" style="stop-color:#595959;stop-opacity:0.8"/>
		<stop  offset="0.55" style="stop-color:#595959;stop-opacity:0.95"/>
		<stop  offset="0.72" style="stop-color:#595959"/>
		<stop  offset="1" style="stop-color:#595959"/>
	</linearGradient>
	<path class="st0" d="M24.9,48.8c2.5-0.2,5.1-0.3,7.7-0.3c0.1,0,0.2,0,0.3,0V6.2h-6.5l-7.3,5.3v6.9l5.7-3.4L24.9,48.8L24.9,48.8z"/>
</g>
</svg>